<svg width="61" height="61" viewBox="0 0 61 61" fill="none" xmlns="http://www.w3.org/2000/svg">
<rect width="61" height="61" rx="10" fill="#B65959"/>
<path d="M12.828 25.4H21.132V26.744H12.828V25.4ZM20.376 25.4H21.852C21.792 29.576 21.936 34.472 22.656 34.46C22.8 34.46 22.884 33.704 22.896 32.336C23.184 32.732 23.544 33.128 23.832 33.332C23.724 35.3 23.388 36.092 22.524 36.092C20.472 36.092 20.388 30.572 20.376 25.4ZM12.864 29.768H20.028V31.1H12.864V29.768ZM15.792 27.164H17.22V36.056H15.792V27.164ZM25.14 25.7H32.616V27.2H25.14V25.7ZM32.4 25.7H32.676L33.012 25.616L34.044 26.372C33.972 26.432 33.9 26.504 33.78 26.564C26.964 31.784 26.556 32.624 26.556 33.26C26.556 33.824 27.072 34.052 27.996 34.052H32.844C33.612 34.052 33.912 33.68 33.996 31.52C34.404 31.736 35.016 31.952 35.46 32.048C35.256 34.904 34.512 35.552 32.664 35.552H28.128C25.98 35.552 24.984 34.724 24.984 33.392C24.984 32.264 25.332 31.256 32.4 25.7ZM36.828 25.4H45.132V26.744H36.828V25.4ZM44.376 25.4H45.852C45.792 29.576 45.936 34.472 46.656 34.46C46.8 34.46 46.884 33.704 46.896 32.336C47.184 32.732 47.544 33.128 47.832 33.332C47.724 35.3 47.388 36.092 46.524 36.092C44.472 36.092 44.388 30.572 44.376 25.4ZM36.864 29.768H44.028V31.1H36.864V29.768ZM39.792 27.164H41.22V36.056H39.792V27.164ZM49.8324 35.1236C49.5256 35.1236 49.2628 35.0156 49.044 34.7997C48.8281 34.5838 48.7216 34.3224 48.7244 34.0156C48.7216 33.7145 48.8281 33.4574 49.044 33.2443C49.2628 33.0284 49.5256 32.9205 49.8324 32.9205C50.1222 32.9205 50.3778 33.0284 50.5994 33.2443C50.8239 33.4574 50.9375 33.7145 50.9403 34.0156C50.9375 34.2202 50.8835 34.4062 50.7784 34.5739C50.6761 34.7415 50.5412 34.875 50.3736 34.9744C50.2088 35.0739 50.0284 35.1236 49.8324 35.1236Z" fill="#F5D4AD"/>
</svg>
